<svg xmlns="http://www.w3.org/2000/svg" xmlns:xlink="http://www.w3.org/1999/xlink" width="300" zoomAndPan="magnify" viewBox="0 0 224.87999 225" height="300" preserveAspectRatio="xMidYMid meet" version="1.0"><defs><clipPath id="e6ce17ae9e"><path d="M 0 0.0585938 L 224.761719 0.0585938 L 224.761719 224.9375 L 0 224.9375 Z M 0 0.0585938 " clip-rule="nonzero"/></clipPath><clipPath id="5937dd80c6"><path d="M 107 123 L 204 123 L 204 224 L 107 224 Z M 107 123 " clip-rule="nonzero"/></clipPath><clipPath id="7ee1081752"><path d="M 240.238281 189.976562 L 160.191406 254.734375 L 102.878906 183.890625 L 182.921875 119.132812 Z M 240.238281 189.976562 " clip-rule="nonzero"/></clipPath><clipPath id="9df1b8c57b"><path d="M 191.457031 223.355469 L 112.707031 192.683594 C 109.816406 191.558594 107.746094 188.976562 107.269531 185.914062 C 106.792969 182.847656 107.984375 179.761719 110.394531 177.8125 L 175.40625 125.214844 C 177.820312 123.261719 181.085938 122.742188 183.984375 123.851562 C 186.882812 124.957031 188.96875 127.519531 189.46875 130.582031 L 203.019531 214 C 203.515625 217.035156 202.34375 220.101562 199.953125 222.035156 C 197.5625 223.96875 194.320312 224.472656 191.457031 223.355469 " clip-rule="nonzero"/></clipPath></defs><g clip-path="url(#e6ce17ae9e)"><path fill="#000000" d="M 224.878906 112.5 C 224.878906 114.339844 224.835938 116.179688 224.746094 118.015625 C 224.652344 119.855469 224.519531 121.691406 224.339844 123.519531 C 224.15625 125.351562 223.933594 127.179688 223.664062 129 C 223.394531 130.820312 223.078125 132.632812 222.71875 134.4375 C 222.359375 136.242188 221.957031 138.035156 221.511719 139.820312 C 221.0625 141.605469 220.574219 143.378906 220.039062 145.140625 C 219.503906 146.902344 218.925781 148.648438 218.308594 150.378906 C 217.6875 152.113281 217.023438 153.828125 216.320312 155.527344 C 215.617188 157.230469 214.871094 158.910156 214.085938 160.574219 C 213.296875 162.238281 212.46875 163.882812 211.601562 165.503906 C 210.734375 167.125 209.828125 168.726562 208.882812 170.304688 C 207.9375 171.882812 206.953125 173.4375 205.929688 174.96875 C 204.90625 176.5 203.847656 178.003906 202.753906 179.480469 C 201.65625 180.957031 200.523438 182.410156 199.355469 183.832031 C 198.191406 185.253906 196.988281 186.648438 195.753906 188.011719 C 194.515625 189.375 193.25 190.707031 191.945312 192.007812 C 190.644531 193.308594 189.3125 194.578125 187.949219 195.8125 C 186.585938 197.046875 185.195312 198.25 183.769531 199.417969 C 182.347656 200.585938 180.898438 201.714844 179.421875 202.8125 C 177.941406 203.910156 176.4375 204.96875 174.910156 205.992188 C 173.378906 207.011719 171.824219 207.996094 170.246094 208.941406 C 168.667969 209.890625 167.066406 210.796875 165.445312 211.664062 C 163.820312 212.53125 162.179688 213.359375 160.515625 214.144531 C 158.851562 214.929688 157.167969 215.675781 155.46875 216.382812 C 153.769531 217.085938 152.050781 217.746094 150.320312 218.367188 C 148.585938 218.988281 146.839844 219.5625 145.078125 220.097656 C 143.320312 220.632812 141.546875 221.125 139.761719 221.570312 C 137.976562 222.015625 136.179688 222.421875 134.375 222.78125 C 132.570312 223.136719 130.757812 223.453125 128.9375 223.722656 C 127.117188 223.992188 125.292969 224.21875 123.460938 224.398438 C 121.628906 224.578125 119.796875 224.714844 117.957031 224.804688 C 116.121094 224.894531 114.28125 224.941406 112.441406 224.941406 C 110.601562 224.941406 108.761719 224.894531 106.921875 224.804688 C 105.085938 224.714844 103.25 224.578125 101.417969 224.398438 C 99.585938 224.21875 97.761719 223.992188 95.941406 223.722656 C 94.121094 223.453125 92.308594 223.136719 90.503906 222.78125 C 88.699219 222.421875 86.902344 222.015625 85.121094 221.570312 C 83.335938 221.125 81.5625 220.632812 79.800781 220.097656 C 78.039062 219.5625 76.292969 218.988281 74.558594 218.367188 C 72.828125 217.746094 71.109375 217.085938 69.410156 216.382812 C 67.710938 215.675781 66.027344 214.929688 64.367188 214.144531 C 62.703125 213.359375 61.058594 212.53125 59.4375 211.664062 C 57.8125 210.796875 56.210938 209.890625 54.632812 208.941406 C 53.054688 207.996094 51.5 207.011719 49.972656 205.992188 C 48.441406 204.96875 46.9375 203.910156 45.460938 202.8125 C 43.980469 201.714844 42.53125 200.585938 41.109375 199.417969 C 39.6875 198.25 38.292969 197.046875 36.929688 195.8125 C 35.566406 194.578125 34.234375 193.308594 32.933594 192.007812 C 31.632812 190.707031 30.363281 189.375 29.128906 188.011719 C 27.890625 186.648438 26.691406 185.253906 25.523438 183.832031 C 24.355469 182.410156 23.222656 180.957031 22.128906 179.480469 C 21.03125 178.003906 19.972656 176.5 18.949219 174.96875 C 17.925781 173.4375 16.941406 171.882812 15.996094 170.304688 C 15.050781 168.726562 14.144531 167.125 13.277344 165.503906 C 12.410156 163.882812 11.582031 162.238281 10.796875 160.574219 C 10.007812 158.910156 9.261719 157.230469 8.558594 155.527344 C 7.855469 153.828125 7.191406 152.113281 6.574219 150.378906 C 5.953125 148.648438 5.375 146.902344 4.839844 145.140625 C 4.308594 143.378906 3.816406 141.605469 3.371094 139.820312 C 2.921875 138.035156 2.519531 136.242188 2.160156 134.4375 C 1.800781 132.632812 1.488281 130.820312 1.21875 129 C 0.945312 127.179688 0.722656 125.351562 0.542969 123.519531 C 0.359375 121.691406 0.226562 119.855469 0.136719 118.015625 C 0.046875 116.179688 0 114.339844 0 112.5 C 0 110.660156 0.046875 108.820312 0.136719 106.984375 C 0.226562 105.144531 0.359375 103.308594 0.542969 101.480469 C 0.722656 99.648438 0.945312 97.820312 1.21875 96 C 1.488281 94.179688 1.800781 92.367188 2.160156 90.5625 C 2.519531 88.757812 2.921875 86.964844 3.371094 85.179688 C 3.816406 83.394531 4.308594 81.621094 4.839844 79.859375 C 5.375 78.097656 5.953125 76.351562 6.574219 74.621094 C 7.191406 72.886719 7.855469 71.171875 8.558594 69.472656 C 9.261719 67.769531 10.007812 66.089844 10.796875 64.425781 C 11.582031 62.761719 12.410156 61.117188 13.277344 59.496094 C 14.144531 57.875 15.050781 56.273438 15.996094 54.695312 C 16.941406 53.117188 17.925781 51.5625 18.949219 50.03125 C 19.972656 48.5 21.03125 46.996094 22.128906 45.519531 C 23.222656 44.042969 24.355469 42.589844 25.523438 41.167969 C 26.691406 39.746094 27.890625 38.351562 29.128906 36.988281 C 30.363281 35.625 31.632812 34.292969 32.933594 32.992188 C 34.234375 31.691406 35.566406 30.421875 36.929688 29.1875 C 38.292969 27.953125 39.6875 26.75 41.109375 25.582031 C 42.53125 24.414062 43.980469 23.285156 45.460938 22.1875 C 46.9375 21.089844 48.441406 20.03125 49.972656 19.007812 C 51.5 17.988281 53.054688 17.003906 54.632812 16.058594 C 56.210938 15.109375 57.8125 14.203125 59.4375 13.335938 C 61.058594 12.46875 62.703125 11.640625 64.367188 10.855469 C 66.027344 10.070312 67.710938 9.324219 69.410156 8.617188 C 71.109375 7.914062 72.828125 7.253906 74.558594 6.632812 C 76.292969 6.011719 78.039062 5.4375 79.800781 4.902344 C 81.5625 4.367188 83.335938 3.875 85.121094 3.429688 C 86.902344 2.984375 88.699219 2.578125 90.503906 2.21875 C 92.308594 1.863281 94.121094 1.546875 95.941406 1.277344 C 97.761719 1.007812 99.585938 0.78125 101.417969 0.601562 C 103.25 0.421875 105.085938 0.285156 106.921875 0.195312 C 108.761719 0.105469 110.601562 0.0585938 112.441406 0.0585938 C 114.28125 0.0585938 116.121094 0.105469 117.957031 0.195312 C 119.796875 0.285156 121.628906 0.421875 123.460938 0.601562 C 125.292969 0.78125 127.117188 1.007812 128.9375 1.277344 C 130.757812 1.546875 132.570312 1.863281 134.375 2.21875 C 136.179688 2.578125 137.976562 2.984375 139.761719 3.429688 C 141.546875 3.875 143.320312 4.367188 145.078125 4.902344 C 146.839844 5.4375 148.585938 6.011719 150.320312 6.632812 C 152.050781 7.253906 153.769531 7.914062 155.46875 8.617188 C 157.167969 9.324219 158.851562 10.070312 160.515625 10.855469 C 162.179688 11.640625 163.820312 12.46875 165.445312 13.335938 C 167.066406 14.203125 168.667969 15.109375 170.246094 16.058594 C 171.824219 17.003906 173.378906 17.988281 174.910156 19.007812 C 176.4375 20.03125 177.941406 21.089844 179.421875 22.1875 C 180.898438 23.285156 182.347656 24.414062 183.769531 25.582031 C 185.195312 26.75 186.585938 27.953125 187.949219 29.1875 C 189.3125 30.421875 190.644531 31.691406 191.945312 32.992188 C 193.25 34.292969 194.515625 35.625 195.753906 36.988281 C 196.988281 38.351562 198.191406 39.746094 199.355469 41.167969 C 200.523438 42.589844 201.65625 44.042969 202.753906 45.519531 C 203.847656 46.996094 204.90625 48.5 205.929688 50.03125 C 206.953125 51.5625 207.9375 53.117188 208.882812 54.695312 C 209.828125 56.273438 210.734375 57.875 211.601562 59.496094 C 212.46875 61.117188 213.296875 62.761719 214.085938 64.425781 C 214.871094 66.089844 215.617188 67.769531 216.320312 69.472656 C 217.023438 71.171875 217.6875 72.886719 218.308594 74.621094 C 218.925781 76.351562 219.503906 78.097656 220.039062 79.859375 C 220.574219 81.621094 221.0625 83.394531 221.511719 85.179688 C 221.957031 86.964844 222.359375 88.757812 222.71875 90.5625 C 223.078125 92.367188 223.394531 94.179688 223.664062 96 C 223.933594 97.820312 224.15625 99.648438 224.339844 101.480469 C 224.519531 103.308594 224.652344 105.144531 224.746094 106.984375 C 224.835938 108.820312 224.878906 110.660156 224.878906 112.5 Z M 224.878906 112.5 " fill-opacity="1" fill-rule="nonzero"/></g><g clip-path="url(#5937dd80c6)"><g clip-path="url(#7ee1081752)"><g clip-path="url(#9df1b8c57b)"><path fill="#000000" d="M 249.589844 193.070312 L 161.261719 264.527344 L 98.738281 187.242188 L 187.0625 115.785156 Z M 249.589844 193.070312 " fill-opacity="1" fill-rule="nonzero"/></g></g></g></svg>